<svg width="105" height="19" viewBox="0 0 105 19" fill="none" xmlns="http://www.w3.org/2000/svg">
<g clip-path="url(#clip0)">
<path fill-rule="evenodd" clip-rule="evenodd" d="M61.4334 12.6958H61.49C61.8862 12.6958 62.2257 12.4695 62.3955 11.9884L63.3293 9.04567L64.263 11.9884C64.4045 12.4695 64.7441 12.6958 65.1685 12.6958H65.2251C65.6212 12.6958 65.9608 12.4695 66.1305 11.9601L67.6019 7.77235C67.6302 7.68747 67.6585 7.54599 67.6585 7.4328C67.6585 7.00837 67.3473 6.66882 66.8945 6.66882C66.4701 6.66882 66.2154 6.95178 66.1023 7.29133L65.1968 10.2907L64.263 7.31962C64.1498 6.92348 63.8386 6.64052 63.4141 6.64052H63.3293C62.9048 6.64052 62.5936 6.92348 62.4804 7.31962L61.5183 10.2907L60.6129 7.29133C60.4997 6.89518 60.2167 6.64052 59.7923 6.64052C59.3113 6.66882 59 7.03666 59 7.40451C59 7.54599 59.0566 7.71576 59.0849 7.80065L60.528 11.9318C60.6977 12.4695 61.0373 12.6958 61.4334 12.6958ZM70.7711 12.7241C68.9601 12.7241 67.6019 11.3659 67.6019 9.69647V9.66817C67.6019 7.97043 68.9601 6.61223 70.7994 6.61223C72.6103 6.61223 73.9685 7.97043 73.9685 9.63988V9.66817C73.9685 11.3659 72.6103 12.7241 70.7711 12.7241ZM70.7994 11.281C71.7614 11.281 72.3273 10.5453 72.3273 9.69647V9.66817C72.3273 8.791 71.7048 8.05531 70.7711 8.05531C69.809 8.05531 69.2431 8.791 69.2431 9.63988V9.66817C69.2714 10.5453 69.8939 11.281 70.7994 11.281ZM74.591 11.8187C74.591 12.2714 74.9588 12.6392 75.4116 12.6392C75.8643 12.6392 76.2322 12.2714 76.2322 11.8187V5.36721C76.2322 4.91448 75.8643 4.54663 75.4116 4.54663C74.9588 4.54663 74.591 4.91448 74.591 5.36721V11.8187ZM77.1376 11.8187C77.1376 12.2714 77.5055 12.6392 77.9582 12.6392C78.4109 12.6392 78.7788 12.2714 78.7788 11.8187V10.8566L79.4579 10.2624L80.901 12.2714C81.099 12.5543 81.2971 12.6675 81.6367 12.6675C82.0611 12.6675 82.4006 12.3563 82.4006 11.9035C82.4006 11.7055 82.3441 11.564 82.2026 11.3659L80.6463 9.24374L81.9479 8.1119C82.1743 7.88554 82.3441 7.68747 82.3441 7.37621C82.3441 6.98007 82.0611 6.64052 81.6084 6.64052C81.3254 6.64052 81.1273 6.782 80.8727 7.00837L78.8071 8.98908V5.36721C78.8071 4.91448 78.4392 4.54663 77.9865 4.54663C77.5338 4.54663 77.1659 4.91448 77.1659 5.36721V11.8187H77.1376ZM86.4752 11.9884L88.2579 7.82895C88.2862 7.74406 88.3428 7.57428 88.3428 7.4328C88.3428 6.98007 87.9749 6.64052 87.5505 6.64052C87.126 6.64052 86.8714 6.92348 86.7865 7.20644L85.5132 10.6302L84.2682 7.23473C84.155 6.89518 83.9003 6.64052 83.4476 6.64052C82.9949 6.64052 82.627 7.03666 82.627 7.40451C82.627 7.54599 82.6836 7.68747 82.7119 7.80065L84.4945 11.9601C84.6926 12.3846 84.9756 12.6958 85.4283 12.6958H85.5132C85.9942 12.6958 86.2772 12.4129 86.4752 11.9884ZM91.4553 12.7241C89.6444 12.7241 88.2862 11.3659 88.2862 9.69647V9.66817C88.2862 7.97043 89.6444 6.61223 91.4836 6.61223C93.2945 6.61223 94.6527 7.97043 94.6527 9.63988V9.66817C94.6527 11.3659 93.2945 12.7241 91.4553 12.7241ZM91.4836 11.281C92.4457 11.281 93.0116 10.5453 93.0116 9.69647V9.66817C93.0116 8.791 92.3891 8.05531 91.4553 8.05531C90.4932 8.05531 89.9273 8.791 89.9273 9.63988V9.66817C89.9273 10.5453 90.5781 11.281 91.4836 11.281ZM94.483 11.9601C94.483 12.3846 94.8225 12.6958 95.2469 12.6958C95.5299 12.6958 95.7846 12.4978 95.9826 12.2714L97.1711 10.7151L98.3595 12.2714C98.5859 12.5543 98.8122 12.6958 99.1235 12.6958C99.5479 12.6958 99.8875 12.4129 99.8875 11.9318C99.8875 11.7055 99.8026 11.5074 99.6045 11.3093L98.1331 9.61158L99.5479 7.94213C99.6894 7.77235 99.7743 7.60258 99.7743 7.37621C99.7743 6.95178 99.4347 6.64052 99.0103 6.64052C98.7273 6.64052 98.4727 6.83859 98.2746 7.06496L97.1711 8.50805L96.0958 7.06496C95.8695 6.782 95.6431 6.64052 95.3318 6.64052C94.9074 6.64052 94.5678 6.92348 94.5678 7.40451C94.5678 7.63088 94.6527 7.82895 94.8508 8.02702L96.209 9.61158L94.7093 11.3942C94.5678 11.5357 94.483 11.7338 94.483 11.9601Z" fill="#2863AF"/>
<path fill-rule="evenodd" clip-rule="evenodd" d="M103 9.66812C103 11.1112 102.406 12.4977 101.387 13.5164C100.708 14.1955 99.9158 14.6765 99.0103 14.9029H98.9537V14.8463C98.9537 14.7614 98.9537 14.6482 98.9537 14.5633C98.9537 14.3086 98.8971 14.0823 98.7556 13.8559L98.7273 13.8276H98.7839C99.463 13.6012 100.057 13.2051 100.567 12.6958C101.387 11.9035 101.84 10.8 101.84 9.63983C101.84 8.4797 101.387 7.40446 100.567 6.58388C98.7839 4.82954 96.492 4.97102 94.2566 5.45205L93.8322 5.53693L94.2 5.28227C95.1621 4.57488 96.3222 4.20703 97.5106 4.20703C98.9537 4.20703 100.368 4.77295 101.415 5.7916C102.406 6.83854 103 8.19674 103 9.66812Z" fill="#2863AF"/>
<path fill-rule="evenodd" clip-rule="evenodd" d="M92.4457 1.4624C94.1434 1.4624 95.7846 2.08491 96.973 3.21674C97.5106 3.69777 97.9351 4.29198 98.2463 4.91449L98.3595 5.11256L98.1331 5.08427C97.9916 5.08427 97.8502 5.05597 97.7087 5.05597C97.5106 5.05597 97.3125 5.05597 97.1428 5.08427H97.0579L97.0013 4.99938C96.7749 4.60324 96.492 4.26369 96.1524 3.95243C95.1621 3.04697 93.8605 2.53764 92.474 2.53764C91.0875 2.53764 89.7576 3.04697 88.7955 3.95243C88.3428 4.37687 87.9749 4.8579 87.7203 5.42382L87.6637 5.537L86.645 4.94279C86.9563 4.29198 87.409 3.69777 87.9466 3.18845C89.1068 2.08491 90.7479 1.4624 92.4457 1.4624Z" fill="#2863AF"/>
<path fill-rule="evenodd" clip-rule="evenodd" d="M87.4655 5.67849C86.6732 4.65984 84.7208 4.80132 83.9285 5.73508L83.7305 5.96144L83.8154 5.65019C84.2964 3.92415 86.7864 3.61289 87.9465 4.8862L87.9748 4.9145L87.9465 4.97109C87.8051 5.19746 87.6919 5.42382 87.5787 5.65019L87.5221 5.76337L87.4655 5.67849Z" fill="#2863AF"/>
<path fill-rule="evenodd" clip-rule="evenodd" d="M97.2842 15.1858C97.5955 14.9594 97.5672 14.7048 97.5672 14.3652C97.5672 14.1671 97.4257 14.1105 97.2276 14.1954C94.0585 15.8932 90.4366 15.8932 87.2392 14.1954C87.0694 14.1105 86.8997 14.1671 86.8997 14.3652C86.8997 14.7048 86.8997 14.9594 87.1826 15.1858C90.182 17.5343 94.3415 17.5343 97.2842 15.1858Z" fill="#F2950D"/>
</g>
<path d="M3.474 5.7C4.032 5.7 4.515 5.793 4.923 5.979C5.337 6.165 5.655 6.429 5.877 6.771C6.099 7.113 6.21 7.518 6.21 7.986C6.21 8.448 6.099 8.853 5.877 9.201C5.655 9.543 5.337 9.807 4.923 9.993C4.515 10.173 4.032 10.263 3.474 10.263H2.205V12H0.747V5.7H3.474ZM3.393 9.075C3.831 9.075 4.164 8.982 4.392 8.796C4.62 8.604 4.734 8.334 4.734 7.986C4.734 7.632 4.62 7.362 4.392 7.176C4.164 6.984 3.831 6.888 3.393 6.888H2.205V9.075H3.393ZM9.46962 12.072C8.95962 12.072 8.50062 11.967 8.09262 11.757C7.69062 11.541 7.37562 11.244 7.14762 10.866C6.91962 10.488 6.80562 10.059 6.80562 9.579C6.80562 9.099 6.91962 8.67 7.14762 8.292C7.37562 7.914 7.69062 7.62 8.09262 7.41C8.50062 7.194 8.95962 7.086 9.46962 7.086C9.97962 7.086 10.4356 7.194 10.8376 7.41C11.2396 7.62 11.5546 7.914 11.7826 8.292C12.0106 8.67 12.1246 9.099 12.1246 9.579C12.1246 10.059 12.0106 10.488 11.7826 10.866C11.5546 11.244 11.2396 11.541 10.8376 11.757C10.4356 11.967 9.97962 12.072 9.46962 12.072ZM9.46962 10.92C9.82962 10.92 10.1236 10.8 10.3516 10.56C10.5856 10.314 10.7026 9.987 10.7026 9.579C10.7026 9.171 10.5856 8.847 10.3516 8.607C10.1236 8.361 9.82962 8.238 9.46962 8.238C9.10962 8.238 8.81262 8.361 8.57862 8.607C8.34462 8.847 8.22762 9.171 8.22762 9.579C8.22762 9.987 8.34462 10.314 8.57862 10.56C8.81262 10.8 9.10962 10.92 9.46962 10.92ZM20.7297 7.158L18.9747 12H17.6247L16.5357 8.994L15.4107 12H14.0607L12.3147 7.158H13.6377L14.7807 10.434L15.9687 7.158H17.1567L18.3087 10.434L19.4877 7.158H20.7297ZM26.0161 9.597C26.0161 9.615 26.0071 9.741 25.9891 9.975H22.3261C22.3921 10.275 22.5481 10.512 22.7941 10.686C23.0401 10.86 23.3461 10.947 23.7121 10.947C23.9641 10.947 24.1861 10.911 24.3781 10.839C24.5761 10.761 24.7591 10.641 24.9271 10.479L25.6741 11.289C25.2181 11.811 24.5521 12.072 23.6761 12.072C23.1301 12.072 22.6471 11.967 22.2271 11.757C21.8071 11.541 21.4831 11.244 21.2551 10.866C21.0271 10.488 20.9131 10.059 20.9131 9.579C20.9131 9.105 21.0241 8.679 21.2461 8.301C21.4741 7.917 21.7831 7.62 22.1731 7.41C22.5691 7.194 23.0101 7.086 23.4961 7.086C23.9701 7.086 24.3991 7.188 24.7831 7.392C25.1671 7.596 25.4671 7.89 25.6831 8.274C25.9051 8.652 26.0161 9.093 26.0161 9.597ZM23.5051 8.148C23.1871 8.148 22.9201 8.238 22.7041 8.418C22.4881 8.598 22.3561 8.844 22.3081 9.156H24.6931C24.6451 8.85 24.5131 8.607 24.2971 8.427C24.0811 8.241 23.8171 8.148 23.5051 8.148ZM28.3144 7.797C28.4824 7.563 28.7074 7.386 28.9894 7.266C29.2774 7.146 29.6074 7.086 29.9794 7.086V8.382C29.8234 8.37 29.7184 8.364 29.6644 8.364C29.2624 8.364 28.9474 8.478 28.7194 8.706C28.4914 8.928 28.3774 9.264 28.3774 9.714V12H26.9734V7.158H28.3144V7.797ZM35.5357 9.597C35.5357 9.615 35.5267 9.741 35.5087 9.975H31.8457C31.9117 10.275 32.0677 10.512 32.3137 10.686C32.5597 10.86 32.8657 10.947 33.2317 10.947C33.4837 10.947 33.7057 10.911 33.8977 10.839C34.0957 10.761 34.2787 10.641 34.4467 10.479L35.1937 11.289C34.7377 11.811 34.0717 12.072 33.1957 12.072C32.6497 12.072 32.1667 11.967 31.7467 11.757C31.3267 11.541 31.0027 11.244 30.7747 10.866C30.5467 10.488 30.4327 10.059 30.4327 9.579C30.4327 9.105 30.5437 8.679 30.7657 8.301C30.9937 7.917 31.3027 7.62 31.6927 7.41C32.0887 7.194 32.5297 7.086 33.0157 7.086C33.4897 7.086 33.9187 7.188 34.3027 7.392C34.6867 7.596 34.9867 7.89 35.2027 8.274C35.4247 8.652 35.5357 9.093 35.5357 9.597ZM33.0247 8.148C32.7067 8.148 32.4397 8.238 32.2237 8.418C32.0077 8.598 31.8757 8.844 31.8277 9.156H34.2127C34.1647 8.85 34.0327 8.607 33.8167 8.427C33.6007 8.241 33.3367 8.148 33.0247 8.148ZM41.425 5.322V12H40.084V11.442C39.736 11.862 39.232 12.072 38.572 12.072C38.116 12.072 37.702 11.97 37.33 11.766C36.964 11.562 36.676 11.271 36.466 10.893C36.256 10.515 36.151 10.077 36.151 9.579C36.151 9.081 36.256 8.643 36.466 8.265C36.676 7.887 36.964 7.596 37.33 7.392C37.702 7.188 38.116 7.086 38.572 7.086C39.19 7.086 39.673 7.281 40.021 7.671V5.322H41.425ZM38.815 10.92C39.169 10.92 39.463 10.8 39.697 10.56C39.931 10.314 40.048 9.987 40.048 9.579C40.048 9.171 39.931 8.847 39.697 8.607C39.463 8.361 39.169 8.238 38.815 8.238C38.455 8.238 38.158 8.361 37.924 8.607C37.69 8.847 37.573 9.171 37.573 9.579C37.573 9.987 37.69 10.314 37.924 10.56C38.158 10.8 38.455 10.92 38.815 10.92ZM48.1802 7.086C48.6302 7.086 49.0382 7.191 49.4042 7.401C49.7762 7.605 50.0672 7.896 50.2772 8.274C50.4872 8.646 50.5922 9.081 50.5922 9.579C50.5922 10.077 50.4872 10.515 50.2772 10.893C50.0672 11.265 49.7762 11.556 49.4042 11.766C49.0382 11.97 48.6302 12.072 48.1802 12.072C47.5142 12.072 47.0072 11.862 46.6592 11.442V12H45.3182V5.322H46.7222V7.671C47.0762 7.281 47.5622 7.086 48.1802 7.086ZM47.9372 10.92C48.2972 10.92 48.5912 10.8 48.8192 10.56C49.0532 10.314 49.1702 9.987 49.1702 9.579C49.1702 9.171 49.0532 8.847 48.8192 8.607C48.5912 8.361 48.2972 8.238 47.9372 8.238C47.5772 8.238 47.2802 8.361 47.0462 8.607C46.8182 8.847 46.7042 9.171 46.7042 9.579C46.7042 9.987 46.8182 10.314 47.0462 10.56C47.2802 10.8 47.5772 10.92 47.9372 10.92ZM56.2288 7.158L54.0418 12.297C53.8198 12.855 53.5438 13.248 53.2138 13.476C52.8898 13.704 52.4968 13.818 52.0348 13.818C51.7828 13.818 51.5338 13.779 51.2878 13.701C51.0418 13.623 50.8408 13.515 50.6848 13.377L51.1978 12.378C51.3058 12.474 51.4288 12.549 51.5668 12.603C51.7108 12.657 51.8518 12.684 51.9898 12.684C52.1818 12.684 52.3378 12.636 52.4578 12.54C52.5778 12.45 52.6858 12.297 52.7818 12.081L52.7998 12.036L50.7028 7.158H52.1518L53.5108 10.443L54.8788 7.158H56.2288Z" fill="black" fill-opacity="0.24"/>
<defs>
<clipPath id="clip0">
<rect width="44" height="15.4778" fill="white" transform="translate(59 1.4624)"/>
</clipPath>
</defs>
</svg>
